<svg xmlns="http://www.w3.org/2000/svg" viewBox="0 0 772 144"><path d="M147.6 45.5c1.3-.3 3.2-.5 5.6-.6 2.4-.2 4.8-.2 7.3-.2 3 0 5.8.3 8.3.8 2.5.5 4.7 1.4 6.4 2.6 1.8 1.2 3.2 2.7 4.2 4.6 1 1.9 1.5 4.2 1.5 6.9 0 1.7-.3 3.2-.8 4.6-.5 1.4-1.2 2.7-2 3.8-.9 1.1-1.8 2-3 2.7-1.1.7-2.3 1.2-3.4 1.6 1.5.2 3 .6 4.5 1.2s2.9 1.5 4.1 2.7c1.2 1.2 2.2 2.7 3 4.4.8 1.8 1.2 4 1.2 6.5 0 3.1-.6 5.7-1.8 7.9-1.2 2.2-2.9 3.9-5 5.2-2.1 1.3-4.6 2.3-7.4 2.9-2.9.6-5.9.9-9.2.9-2 0-4.2-.1-6.6-.3-2.4-.2-4.7-.4-6.8-.7v-57.5zm14 24c3.6 0 6.4-.8 8.3-2.4 1.9-1.6 2.9-3.9 2.9-7.1 0-3-1-5.3-3.1-6.8s-4.8-2.2-8.4-2.2c-1.1 0-2.1 0-3.1.1s-1.8.1-2.5.2v18.2h5.9zm-5.9 27.2c.7.1 1.7.2 2.8.2 1.1.1 2.3.1 3.4.1 1.9 0 3.7-.2 5.4-.5 1.7-.3 3.2-.9 4.4-1.6 1.3-.8 2.3-1.8 3-3.1.7-1.3 1.1-3 1.1-5s-.3-3.6-1-5-1.6-2.5-2.8-3.3c-1.2-.8-2.6-1.4-4.3-1.8-1.7-.3-3.4-.5-5.4-.5h-6.7v20.5zm36-34.7c.6-.1 1.3-.2 2-.2.7-.1 1.4-.1 1.9-.1.6 0 1.3 0 2 .1s1.4.1 2 .2v22.5c0 2.6.2 4.7.7 6.4s1.2 3 2.2 4c1 1 2.1 1.6 3.5 2 1.4.4 3 .6 4.8.6 2.7 0 5-.3 7-.9v-34.6c.6-.1 1.2-.2 2-.2.7-.1 1.4-.1 2-.1.6 0 1.2 0 2 .1.7.1 1.4.1 2 .2v39.8c-1.9.5-4.1 1-6.7 1.5-2.6.5-5.3.7-8 .7-2.6 0-5.1-.2-7.4-.7-2.3-.5-4.4-1.4-6.1-2.8-1.8-1.4-3.1-3.3-4.2-5.8-1-2.5-1.5-5.8-1.5-9.9v-22.8zm46.5 6.2h-5.2c-.1-.4-.2-.9-.2-1.5-.1-.6-.1-1.1-.1-1.6s0-1.1.1-1.6c.1-.6.1-1.1.2-1.5h13v41c-.6.1-1.2.2-2 .2-.7.1-1.4.1-2 .1-.5 0-1.2 0-1.9-.1s-1.4-.1-2-.2v-34.8zm-1.8-15.3c-.1-.6-.2-1.3-.2-2.1v-4c0-.7.1-1.4.2-2 .7-.1 1.4-.2 2.2-.2.8-.1 1.5-.1 2.1-.1.6 0 1.3 0 2.1.1s1.5.1 2.2.2c.1.6.2 1.3.2 2v4c0 .7-.1 1.4-.2 2.1-.6.1-1.3.2-2.1.2-.8.1-1.5.1-2 .1-.6 0-1.4 0-2.2-.1-.8 0-1.6-.1-2.3-.2zm20-8.5c.6-.1 1.2-.2 2-.2.7-.1 1.4-.1 2-.1.6 0 1.2 0 2 .1.7.1 1.4.1 2 .2v46.2c0 1.5.1 2.7.4 3.5.3.9.6 1.5 1.1 2s1 .7 1.6.9c.6.1 1.3.2 2 .2.5 0 1 0 1.6-.1.6-.1 1.1-.1 1.6-.2.5 1.9.7 3.9.7 6.1-.7.3-1.7.4-2.7.5-1.1.1-2.1.1-3 .1-1.5 0-3-.2-4.3-.6-1.3-.4-2.5-1-3.5-1.8-1-.9-1.8-2-2.4-3.4-.6-1.4-.9-3.2-.9-5.4v-48zm48 0c.6-.1 1.3-.2 2-.2.7-.1 1.4-.1 1.9-.1.6 0 1.2 0 2 .1.7.1 1.4.1 2 .2v57.5c-2 .6-4.3 1.1-6.8 1.5-2.5.4-5.3.6-8.4.6-2.9 0-5.6-.4-8.2-1.1-2.6-.7-4.8-1.9-6.8-3.6-1.9-1.7-3.4-3.8-4.6-6.4-1.1-2.6-1.7-5.8-1.7-9.7 0-3.3.5-6.3 1.5-9s2.4-5.1 4.2-7c1.8-1.9 4-3.5 6.5-4.5 2.5-1.1 5.3-1.6 8.4-1.6 1.4 0 2.8.1 4.2.3 1.4.2 2.7.5 3.7.8v-17.8zm0 24.5c-1.1-.4-2.2-.7-3.4-1-1.2-.2-2.6-.3-4-.3-2.2 0-4.1.4-5.7 1.2-1.6.8-2.9 1.9-4 3.3-1 1.4-1.8 3-2.3 4.9-.5 1.9-.8 4-.8 6.2.1 5.1 1.3 8.7 3.6 10.9 2.3 2.2 5.5 3.3 9.6 3.3 1.4 0 2.7-.1 3.8-.2 1.2-.1 2.2-.3 3.1-.6v-27.7zm43.4-16.3h-15c-.1-.5-.2-1.1-.2-1.8-.1-.6-.1-1.3-.1-1.8 0-.6 0-1.2.1-1.8.1-.6.1-1.2.2-1.7h38.1c.1.5.2 1.1.2 1.7.1.6.1 1.2.1 1.8 0 .6 0 1.2-.1 1.9s-.1 1.3-.2 1.8h-15v50.3c-1.2.2-2.6.2-4 .2-1.5 0-2.9-.1-4.2-.2v-50.4zm31.6 15.6h-5.2c-.1-.4-.2-.9-.2-1.5-.1-.6-.1-1.1-.1-1.6s0-1.1.1-1.6c.1-.6.1-1.1.2-1.5h13v41c-.6.1-1.2.2-2 .2-.7.1-1.4.1-2 .1-.5 0-1.2 0-1.9-.1s-1.4-.1-2-.2v-34.8zm-1.8-15.3c-.1-.6-.2-1.3-.2-2.1v-4c0-.7.1-1.4.2-2 .7-.1 1.4-.2 2.2-.2.8-.1 1.5-.1 2.1-.1.6 0 1.3 0 2.1.1s1.5.1 2.2.2c.1.6.2 1.3.2 2v4c0 .7-.1 1.4-.2 2.1-.6.1-1.3.2-2.1.2-.8.1-1.5.1-2 .1-.6 0-1.4 0-2.2-.1-.8 0-1.6-.1-2.3-.2zm20.1 9.1c.6-.1 1.2-.2 1.7-.2.6-.1 1.1-.1 1.7-.1.6 0 1.1 0 1.6.1l1.6.2c.2.8.3 1.9.5 3.2.2 1.3.2 2.4.2 3.3.5-1 1.1-1.9 1.8-2.8.7-.9 1.6-1.7 2.6-2.4s2.1-1.3 3.4-1.7c1.3-.4 2.7-.6 4.2-.6 3.2 0 5.7.7 7.4 2 1.7 1.3 3.1 3.1 4 5.5.5-.9 1.2-1.8 2-2.7.8-.9 1.6-1.7 2.6-2.4s2.1-1.3 3.3-1.7c1.2-.4 2.6-.6 4.2-.6 4.7 0 8.2 1.3 10.4 4 2.2 2.7 3.2 6.6 3.2 11.8v26.1c-.6.1-1.3.2-2 .2-.7.1-1.4.1-2 .1s-1.2 0-2-.1c-.7-.1-1.4-.1-2-.2v-23.8c0-3.7-.6-6.4-1.7-8.3-1.1-1.8-3-2.8-5.5-2.8-2.7 0-4.9 1-6.6 3-1.7 2-2.5 4.9-2.5 8.7v23.2c-.6.1-1.2.2-2 .2-.7.1-1.4.1-2 .1s-1.2 0-2-.1c-.7-.1-1.4-.1-2-.2v-24.4c0-3.6-.5-6.3-1.6-8-1.1-1.8-2.8-2.7-5.1-2.7-1.3 0-2.6.3-3.8.9-1.2.6-2.2 1.5-3.1 2.6-.9 1.2-1.6 2.7-2.1 4.4-.5 1.8-.8 3.9-.8 6.2v21c-.6.1-1.2.2-2 .2-.7.1-1.4.1-2 .1-.6 0-1.3 0-2-.1s-1.4-.1-2-.2v-41zm71.9 22.4c.1 4.5 1.3 7.8 3.5 9.8 2.2 2.1 5.5 3.1 9.8 3.1 3.8 0 7.4-.7 10.8-2 .4.8.8 1.8 1 2.9.3 1.1.4 2.3.5 3.4-1.8.7-3.7 1.3-5.8 1.7-2.1.4-4.4.6-7 .6-3.7 0-6.9-.5-9.6-1.6s-4.9-2.5-6.6-4.4c-1.7-1.9-3-4.1-3.8-6.7-.8-2.6-1.2-5.4-1.2-8.5 0-3 .4-5.9 1.2-8.5.8-2.6 2-4.9 3.6-6.9 1.6-1.9 3.6-3.5 6-4.6 2.4-1.1 5.3-1.7 8.6-1.7 2.8 0 5.3.5 7.4 1.4 2.1 1 3.9 2.3 5.4 4 1.4 1.7 2.5 3.7 3.3 6 .7 2.3 1.1 4.8 1.1 7.6 0 .7 0 1.5-.1 2.4-.1.8-.1 1.5-.2 2.1h-27.9zm20.4-5.9c0-1.5-.2-2.9-.6-4.3-.4-1.4-1-2.5-1.8-3.6-.8-1-1.8-1.8-3-2.4-1.2-.6-2.6-.9-4.3-.9-3.3 0-5.7 1-7.5 3-1.7 2-2.8 4.7-3.2 8.2h20.4zm38.1-25.9h-15c-.1-.5-.2-1.1-.2-1.8-.1-.6-.1-1.3-.1-1.8 0-.6 0-1.2.1-1.8.1-.6.1-1.2.2-1.7h38.1c.1.5.2 1.1.2 1.7.1.6.1 1.2.1 1.8 0 .6 0 1.2-.1 1.9s-.1 1.3-.2 1.8h-15v50.3c-1.2.2-2.6.2-4 .2-1.5 0-2.9-.1-4.2-.2v-50.4zm23.4 9.4c.6-.1 1.1-.2 1.7-.2.5-.1 1.1-.1 1.7-.1s1.2 0 1.8.1c.6.1 1.1.1 1.6.2.2.8.3 1.9.5 3.2.2 1.3.2 2.4.2 3.3 1.1-1.8 2.6-3.4 4.4-4.7 1.8-1.3 4.2-2 7.1-2h1.3c.5 0 .8.1 1.2.1.1.5.2 1 .2 1.5.1.5.1 1.1.1 1.7 0 .6 0 1.3-.1 2s-.2 1.4-.3 2c-.4-.1-.9-.2-1.3-.2h-1.1c-1.4 0-2.8.2-4.1.6-1.3.4-2.5 1.1-3.5 2.1s-1.9 2.4-2.5 4.2c-.6 1.8-.9 4-.9 6.8v20.4c-.6.1-1.2.2-2 .2-.7.1-1.4.1-2 .1-.6 0-1.2 0-2-.1-.7-.1-1.4-.1-2-.2v-41zm48.3 14c0-3.1-.8-5.3-2.4-6.6-1.6-1.2-3.9-1.8-7-1.8-1.9 0-3.6.1-5.2.4-1.6.3-3.2.7-4.8 1.2-1-1.8-1.5-3.9-1.5-6.3 1.8-.6 3.8-1 6-1.4 2.2-.3 4.3-.5 6.3-.5 5.3 0 9.4 1.2 12.2 3.6 2.8 2.4 4.2 6.3 4.2 11.6v25.8c-1.9.4-4.1.9-6.8 1.3-2.7.5-5.4.7-8.2.7-2.6 0-5-.2-7.1-.7-2.1-.5-3.9-1.3-5.4-2.3-1.5-1.1-2.6-2.4-3.4-4.1-.8-1.7-1.2-3.7-1.2-6s.5-4.3 1.4-6c.9-1.7 2.2-3.2 3.8-4.3 1.6-1.1 3.4-2 5.5-2.6 2.1-.6 4.3-.8 6.6-.8 1.7 0 3.1 0 4.2.1s2 .2 2.8.3v-1.6zm0 7.7c-.8-.1-1.8-.2-3-.3-1.2-.1-2.3-.2-3.1-.2-3.3 0-5.8.6-7.6 1.8-1.7 1.2-2.6 3.1-2.6 5.6 0 1.6.3 2.9.9 3.8.6.9 1.3 1.6 2.2 2.1.9.5 1.9.8 2.9.9 1.1.1 2.1.2 3 .2 1.2 0 2.5-.1 3.8-.2 1.3-.1 2.5-.3 3.5-.6v-13.1zm44.8 12.2c.4.7.8 1.7 1.1 2.8s.5 2.3.6 3.4c-3.1 1.2-6.7 1.8-10.8 1.8-6.8 0-12-1.9-15.4-5.8-3.5-3.9-5.2-9.1-5.2-15.6 0-3 .4-5.9 1.3-8.5.9-2.6 2.1-4.9 3.8-6.8 1.7-1.9 3.8-3.4 6.3-4.6 2.5-1.1 5.4-1.7 8.7-1.7 2.2 0 4.2.1 5.9.4 1.7.3 3.3.7 4.9 1.3 0 .9-.1 2-.4 3.2-.2 1.2-.6 2.3-1 3.2-2.6-.9-5.6-1.4-9-1.4-4.1 0-7.2 1.4-9.2 4.1-2 2.7-3 6.3-3 10.8 0 5.1 1.1 8.9 3.4 11.2 2.3 2.4 5.4 3.6 9.4 3.6 1.6 0 3.1-.1 4.4-.3 1.4-.2 2.8-.6 4.2-1.1zm8.2-51.5c.6-.1 1.2-.2 2-.2.7-.1 1.4-.1 2-.1.6 0 1.3 0 2 .1s1.4.1 2 .2v58.6c-.6.1-1.3.2-2 .2-.7.1-1.4.1-2 .1-.6 0-1.2 0-2-.1-.7-.1-1.4-.1-2-.2v-58.6zm10.1 37.3l13-19.8c.7-.1 1.4-.2 2.1-.2.7-.1 1.4-.1 2.2-.1.8 0 1.6 0 2.3.1l2.2.2-13 19.2 15.3 21.8c-.7.1-1.5.2-2.2.2-.7.1-1.4.1-2.2.1-.7 0-1.5 0-2.2-.1l-2.2-.2-15.3-21.2zm33.3 2.7c.1 4.5 1.3 7.8 3.5 9.8 2.2 2.1 5.5 3.1 9.8 3.1 3.8 0 7.4-.7 10.8-2 .4.8.8 1.8 1 2.9.3 1.1.4 2.3.5 3.4-1.8.7-3.7 1.3-5.8 1.7-2.1.4-4.4.6-7 .6-3.7 0-6.9-.5-9.6-1.6s-4.9-2.5-6.6-4.4c-1.7-1.9-3-4.1-3.8-6.7-.8-2.6-1.2-5.4-1.2-8.5 0-3 .4-5.9 1.2-8.5.8-2.6 2-4.9 3.6-6.9 1.6-1.9 3.6-3.5 6-4.6 2.4-1.1 5.3-1.7 8.6-1.7 2.8 0 5.3.5 7.4 1.4 2.1 1 3.9 2.3 5.4 4 1.4 1.7 2.5 3.7 3.3 6 .7 2.3 1.1 4.8 1.1 7.6 0 .7 0 1.5-.1 2.4-.1.8-.1 1.5-.2 2.1h-27.9zm20.4-5.9c0-1.5-.2-2.9-.6-4.3-.4-1.4-1-2.5-1.8-3.6-.8-1-1.8-1.8-3-2.4-1.2-.6-2.6-.9-4.3-.9-3.3 0-5.7 1-7.5 3-1.7 2-2.8 4.7-3.2 8.2h20.4zm15.9-16.5c.6-.1 1.1-.2 1.7-.2.5-.1 1.1-.1 1.7-.1s1.2 0 1.8.1c.6.1 1.1.1 1.6.2.2.8.3 1.9.5 3.2.2 1.3.2 2.4.2 3.3 1.1-1.8 2.6-3.4 4.4-4.7 1.8-1.3 4.2-2 7.1-2h1.3c.5 0 .8.1 1.2.1.1.5.2 1 .2 1.5.1.5.1 1.1.1 1.7 0 .6 0 1.3-.1 2s-.2 1.4-.3 2c-.4-.1-.9-.2-1.3-.2h-1.1c-1.4 0-2.8.2-4.1.6-1.3.4-2.5 1.1-3.5 2.1s-1.9 2.4-2.5 4.2c-.6 1.8-.9 4-.9 6.8v20.4c-.6.1-1.2.2-2 .2-.7.1-1.4.1-2 .1-.6 0-1.2 0-2-.1-.7-.1-1.4-.1-2-.2v-41zM76.3 24.7v-6.4h1.6c2 0 3.6-1.3 3.6-3.3s-1.6-3.3-3.6-3.3h-16.5c-2 0-3.6 1.3-3.6 3.3s1.6 3.3 3.6 3.3h1.6v6.4m46.4 16.3l5.3-5.8-10.2-9.4-5.1 5.7" fill="#295127"/><path fill="#72BE44" d="M70 126.3c26.1 0 47.7-19.1 51.6-44.1h-16.8l-15.2 26.3h-39.3l-19.6-34 15.3-26.4-8.5-14.8c-12 9.6-19.7 24.3-19.7 40.8 0 28.8 23.3 52.2 52.2 52.2"/><path fill="#295127" d="M121.5 65.8c-4-24.9-25.5-43.9-51.5-43.9-6.4 0-12.6 1.2-18.3 3.3l8.8 15.3h29.1l14.6 25.3h17.3z"/><g fill="#295127"><circle cx="70.3" cy="74.7" r="5.4"/><path d="M75.7 45c1 .2-3.6 30.5-3.6 30.5-.2 1-1.1 1.6-2.1 1.5h-.2c-1-.2-1.6-1.1-1.5-2.1 0 0 6.1-30.1 7.1-29.9h.3z"/></g></svg>